<?xml version="1.0" encoding="UTF-8" standalone="no"?>
<svg
   enable-background="new 0 0 24 24"
   height="24px"
   viewBox="0 0 24 24"
   width="24px"
   fill="#000000"
   version="1.1"
   id="svg1134"
   sodipodi:docname="bolt_outline_black_24dp.svg"
   inkscape:version="1.1.1 (3bf5ae0, 2021-09-20)"
   xmlns:inkscape="http://www.inkscape.org/namespaces/inkscape"
   xmlns:sodipodi="http://sodipodi.sourceforge.net/DTD/sodipodi-0.dtd"
   xmlns="http://www.w3.org/2000/svg"
   xmlns:svg="http://www.w3.org/2000/svg">
  <defs
     id="defs1138" />
  <sodipodi:namedview
     id="namedview1136"
     pagecolor="#505050"
     bordercolor="#eeeeee"
     borderopacity="1"
     inkscape:pageshadow="0"
     inkscape:pageopacity="0"
     inkscape:pagecheckerboard="0"
     showgrid="false"
     inkscape:zoom="34.25"
     inkscape:cx="11.985401"
     inkscape:cy="12"
     inkscape:window-width="1863"
     inkscape:window-height="1025"
     inkscape:window-x="57"
     inkscape:window-y="27"
     inkscape:window-maximized="1"
     inkscape:current-layer="svg1134" />
  <g
     id="g1128">
    <rect
       fill="none"
       height="24"
       width="24"
       id="rect1126" />
  </g>
  <g
     id="g1132"
     style="fill:none;stroke:none;stroke-width:1.6;stroke-miterlimit:4;stroke-dasharray:none">
    <path
       style="color:#000000;fill:#000000;stroke:none;stroke-width:1.6;stroke-miterlimit:4;stroke-dasharray:none"
       d="M 12.544922,2.1992188 12.314453,2.6035156 C 9.7352458,7.1245973 7.8090019,10.500925 6.5175781,12.783203 c 0.011757,-0.01794 -0.00527,0.0121 -0.025391,0.04297 -0.024036,0.03689 -0.055025,0.08424 -0.087891,0.144531 -0.065731,0.12059 -0.1488992,0.281264 -0.1875,0.527344 -0.038601,0.24608 0.0075,0.668184 0.2988281,0.955078 0.2913277,0.286894 0.650739,0.347656 0.984375,0.347656 h 2.578125 l -1,7 h 2.386719 l 0.230469,-0.404297 c 0,0 1.9682,-3.448295 5.917968,-10.33789 l 0.01758,-0.0293 L 17.644531,11 C 17.815485,10.63478 17.909486,10.106472 17.599609,9.6816406 17.289733,9.2568094 16.846198,9.1992187 16.519531,9.1992188 h -2.585937 l 0.998047,-7 z m 0.414062,2.5078124 -0.871093,6.0937498 h 3.830078 c -3.077948,5.36999 -4.4616,7.788597 -4.869141,8.501953 l 0.873047,-6.103515 H 8.1230469 C 9.2380038,11.230513 10.944815,8.2378044 12.958984,4.7070312 Z"
       id="path1130" />
  </g>
</svg>
