<?xml version="1.0" encoding="UTF-8" standalone="no"?>
<svg
   height="24px"
   viewBox="0 0 24 24"
   width="24px"
   fill="#000000"
   version="1.1"
   id="svg870"
   sodipodi:docname="notifications_off_black_outline_24dp.svg"
   inkscape:version="1.1.1 (3bf5ae0, 2021-09-20)"
   xmlns:inkscape="http://www.inkscape.org/namespaces/inkscape"
   xmlns:sodipodi="http://sodipodi.sourceforge.net/DTD/sodipodi-0.dtd"
   xmlns="http://www.w3.org/2000/svg"
   xmlns:svg="http://www.w3.org/2000/svg">
  <defs
     id="defs874" />
  <sodipodi:namedview
     id="namedview872"
     pagecolor="#505050"
     bordercolor="#eeeeee"
     borderopacity="1"
     inkscape:pageshadow="0"
     inkscape:pageopacity="0"
     inkscape:pagecheckerboard="0"
     showgrid="false"
     inkscape:zoom="19.563079"
     inkscape:cx="11.884632"
     inkscape:cy="18.606478"
     inkscape:window-width="1863"
     inkscape:window-height="1025"
     inkscape:window-x="57"
     inkscape:window-y="27"
     inkscape:window-maximized="1"
     inkscape:current-layer="svg870" />
  <path
     d="M0 0h24v24H0V0z"
     fill="none"
     id="path866" />
  <path
     id="path868"
     d="M 12 2.5 C 11.17 2.5 10.5 3.17 10.5 4 L 10.5 4.6796875 C 9.5560271 4.9041286 8.7489952 5.336721 8.0859375 5.921875 L 9.5273438 7.3671875 C 10.17483 6.8242961 11.007683 6.5 12 6.5 C 14.49 6.5 16 8.52 16 11 L 16 13.855469 L 18 15.861328 L 18 11 C 18 7.93 16.37 5.3596875 13.5 4.6796875 L 13.5 4 C 13.5 3.17 12.83 2.5 12 2.5 z M 6.7714844 7.6289062 C 6.2688257 8.6105696 6 9.7619884 6 11 L 6 16 L 4 18 L 4 19 L 18.117188 19 L 16 16.878906 L 16 17 L 8 17 L 8 11 C 8 10.347635 8.1073172 9.7282789 8.3066406 9.1679688 L 6.7714844 7.6289062 z M 10 20 C 10 21.1 10.9 22 12 22 C 13.1 22 14 21.1 14 20 L 10 20 z " />
  <path
     style="color:#000000;fill:#000000;-inkscape-stroke:none"
     d="M 3.5429688,3.3964844 2.03125,4.9042969 19.523437,22.439453 21.035156,20.931641 Z"
     id="path989" />
</svg>
