<?xml version="1.0" encoding="UTF-8" standalone="no"?>
<svg
   height="24px"
   viewBox="0 0 24 24"
   width="24px"
   fill="#000000"
   version="1.1"
   id="svg870"
   sodipodi:docname="notifications_off_time_black_outline_24dp.svg"
   inkscape:version="1.1.1 (3bf5ae0, 2021-09-20)"
   xmlns:inkscape="http://www.inkscape.org/namespaces/inkscape"
   xmlns:sodipodi="http://sodipodi.sourceforge.net/DTD/sodipodi-0.dtd"
   xmlns="http://www.w3.org/2000/svg"
   xmlns:svg="http://www.w3.org/2000/svg">
  <defs
     id="defs874" />
  <sodipodi:namedview
     id="namedview872"
     pagecolor="#505050"
     bordercolor="#eeeeee"
     borderopacity="1"
     inkscape:pageshadow="0"
     inkscape:pageopacity="0"
     inkscape:pagecheckerboard="0"
     showgrid="false"
     inkscape:zoom="17.160655"
     inkscape:cx="17.977169"
     inkscape:cy="25.989683"
     inkscape:window-width="1863"
     inkscape:window-height="1025"
     inkscape:window-x="57"
     inkscape:window-y="27"
     inkscape:window-maximized="1"
     inkscape:current-layer="svg870" />
  <path
     d="M0 0h24v24H0V0z"
     fill="none"
     id="path866" />
  <path
     id="path868"
     style="stroke:none;stroke-opacity:1;fill:#000000;fill-opacity:1"
     d="M 12 2.5 C 11.17 2.5 10.5 3.17 10.5 4 L 10.5 4.6796875 C 9.5560271 4.9041286 8.7489952 5.336721 8.0859375 5.921875 L 9.5273438 7.3671875 C 10.17483 6.8242961 11.007683 6.5 12 6.5 C 14.176573 6.5 15.602785 8.0428914 15.927734 10.087891 A 6.6092234 6.6092234 0 0 1 16.501953 10.037109 A 6.6092234 6.6092234 0 0 1 17.960938 10.203125 C 17.70244 7.4927147 16.117858 5.2999464 13.5 4.6796875 L 13.5 4 C 13.5 3.17 12.83 2.5 12 2.5 z M 3.5429688 3.3964844 L 2.03125 4.9042969 L 6.2265625 9.109375 C 6.0792507 9.7072066 6 10.340437 6 11 L 6 16 L 4 18 L 4 19 L 10.333984 19 A 6.6092234 6.6092234 0 0 1 9.9238281 17 L 8 17 L 8 11 C 8 10.96369 8.0032442 10.928679 8.0039062 10.892578 L 10.673828 13.568359 A 6.6092234 6.6092234 0 0 1 11.982422 11.855469 L 3.5429688 3.3964844 z " />
  <path
     id="path2323"
     style="color:#000000;fill:#000000;stroke-width:0.901647;-inkscape-stroke:none"
     d="m 16.85531,10.774346 c -3.310895,0 -6.001953,2.69551 -6.001953,6.005859 0,3.310352 2.691058,6.007813 6.001953,6.007813 3.316009,0 6.011719,-2.696918 6.011719,-6.007813 0,-3.310893 -2.69571,-6.005859 -6.011719,-6.005859 z m 0.0039,2.011719 c 2.212368,0 3.99414,1.781774 3.99414,3.99414 0,2.212369 -1.781772,3.994141 -3.99414,3.994141 -2.212368,0 -3.994141,-1.781772 -3.994141,-3.994141 0,-2.212367 1.781773,-3.99414 3.994141,-3.99414 z" />
  <g
     id="g2329"
     transform="translate(0.08197986,0.02172169)"
     style="fill:#000000">
    <path
       style="color:#000000;fill:#000000;stroke-width:0.901647;-inkscape-stroke:none"
       d="M 16.833417,13.855469 H 16 v 3.333667 l 2.916958,1.750175 0.416708,-0.683401 -2.50025,-1.483483 z"
       id="path2325" />
    <path
       style="color:#000000;fill:#000000;-inkscape-stroke:none"
       d="m 15.548828,13.404297 v 4.041015 l 3.519531,2.111329 0.888672,-1.455079 -2.671875,-1.585937 v -3.111328 h -0.451172 z"
       id="path2327" />
  </g>
</svg>
