<?xml version="1.0" encoding="UTF-8" standalone="no"?>
<svg
   height="24px"
   viewBox="0 0 24 24"
   width="24px"
   fill="#000000"
   version="1.1"
   id="svg1428"
   sodipodi:docname="priority_5_24dp.svg"
   inkscape:version="1.1.1 (3bf5ae0, 2021-09-20)"
   xmlns:inkscape="http://www.inkscape.org/namespaces/inkscape"
   xmlns:sodipodi="http://sodipodi.sourceforge.net/DTD/sodipodi-0.dtd"
   xmlns="http://www.w3.org/2000/svg"
   xmlns:svg="http://www.w3.org/2000/svg">
  <defs
     id="defs1432" />
  <sodipodi:namedview
     id="namedview1430"
     pagecolor="#505050"
     bordercolor="#eeeeee"
     borderopacity="1"
     inkscape:pageshadow="0"
     inkscape:pageopacity="0"
     inkscape:pagecheckerboard="0"
     showgrid="false"
     inkscape:zoom="19.300483"
     inkscape:cx="8.1604177"
     inkscape:cy="7.4609534"
     inkscape:window-width="1863"
     inkscape:window-height="1025"
     inkscape:window-x="57"
     inkscape:window-y="27"
     inkscape:window-maximized="1"
     inkscape:current-layer="svg1428" />
  <path
     style="color:#000000;fill:#ff5630;fill-opacity:1;stroke-width:0.0878234;stroke-linecap:round;stroke-linejoin:round;-inkscape-stroke:none"
     d="M 12.368788,3.4216973 A 1.2171741,1.2171741 0 0 0 11.737045,3.5985441 L 5.3904546,7.4534983 a 1.2170524,1.2170524 0 0 0 -0.4082396,1.672069 1.2170524,1.2170524 0 0 0 1.6718977,0.408412 l 5.7146753,-3.471242 5.714676,3.471242 a 1.2170524,1.2170524 0 0 0 1.671897,-0.408412 1.2170524,1.2170524 0 0 0 -0.408239,-1.672069 L 13.000702,3.5985441 A 1.2171741,1.2171741 0 0 0 12.368788,3.4216973 Z"
     id="rect3554" />
  <path
     style="color:#000000;fill:#ff7452;fill-opacity:1;stroke:none;stroke-width:0.0878234;stroke-linecap:round;stroke-linejoin:round;-inkscape-stroke:none"
     d="m 12.368788,8.6910833 a 1.2171741,1.2171741 0 0 0 -0.631743,0.176847 L 5.3904546,12.722883 a 1.2170524,1.2170524 0 0 0 -0.4082396,1.67207 1.2170524,1.2170524 0 0 0 1.6718977,0.408411 l 5.7146753,-3.471242 5.714676,3.471242 a 1.2170524,1.2170524 0 0 0 1.671897,-0.408411 1.2170524,1.2170524 0 0 0 -0.408239,-1.67207 l -6.34642,-3.8549527 a 1.2171741,1.2171741 0 0 0 -0.631914,-0.176847 z"
     id="path9314" />
  <path
     style="color:#000000;fill:#ff8f73;fill-opacity:1;stroke:none;stroke-width:0.0878234;stroke-linecap:round;stroke-linejoin:round;-inkscape-stroke:none"
     d="m 12.368788,14.136115 a 1.2171741,1.2171741 0 0 0 -0.631743,0.176846 l -6.3465904,3.854954 a 1.2170524,1.2170524 0 0 0 -0.4082396,1.672069 1.2170524,1.2170524 0 0 0 1.6718977,0.408412 l 5.7146753,-3.471242 5.714676,3.471242 a 1.2170524,1.2170524 0 0 0 1.671897,-0.408412 1.2170524,1.2170524 0 0 0 -0.408239,-1.672069 l -6.34642,-3.854954 a 1.2171741,1.2171741 0 0 0 -0.631914,-0.176846 z"
     id="path9316" />
</svg>
