<?xml version="1.0" encoding="UTF-8" standalone="no"?>
<svg
   height="24px"
   viewBox="0 0 24 24"
   width="24px"
   fill="#000000"
   version="1.1"
   id="svg874"
   sodipodi:docname="priority_high_circle_red_24dp.svg"
   inkscape:version="1.1.1 (3bf5ae0, 2021-09-20)"
   xmlns:inkscape="http://www.inkscape.org/namespaces/inkscape"
   xmlns:sodipodi="http://sodipodi.sourceforge.net/DTD/sodipodi-0.dtd"
   xmlns="http://www.w3.org/2000/svg"
   xmlns:svg="http://www.w3.org/2000/svg">
  <defs
     id="defs878" />
  <sodipodi:namedview
     id="namedview876"
     pagecolor="#505050"
     bordercolor="#eeeeee"
     borderopacity="1"
     inkscape:pageshadow="0"
     inkscape:pageopacity="0"
     inkscape:pagecheckerboard="0"
     showgrid="false"
     inkscape:zoom="24.506368"
     inkscape:cx="13.894348"
     inkscape:cy="9.8749843"
     inkscape:window-width="1863"
     inkscape:window-height="1025"
     inkscape:window-x="57"
     inkscape:window-y="27"
     inkscape:window-maximized="1"
     inkscape:current-layer="svg874" />
  <path
     id="path25891"
     style="fill:#800000;stroke-width:34.5068;stroke-linecap:round;stroke-linejoin:round"
     d="M 11.838253,0.22539283 A 11.693702,11.693702 0 0 0 0.14541272,11.918233 11.693702,11.693702 0 0 0 11.838253,23.612994 11.693702,11.693702 0 0 0 23.533014,11.918233 11.693702,11.693702 0 0 0 11.838253,0.22539283 Z M 11.918883,1.530783 A 10.412385,10.412385 0 0 1 22.331287,11.945109 10.412385,10.412385 0 0 1 11.918881,22.357515 10.412385,10.412385 0 0 1 1.5045542,11.945109 10.412385,10.412385 0 0 1 11.918881,1.530783 Z M 10.095174,3.8612884 V 14.592364 h 3.576385 V 3.8612884 Z m 1.789152,12.5202276 a 1.7886362,1.7886362 0 0 0 -1.789152,1.789152 1.7886362,1.7886362 0 0 0 1.789152,1.787233 1.7886362,1.7886362 0 0 0 1.787233,-1.787233 1.7886362,1.7886362 0 0 0 -1.787233,-1.789152 z" />
  <path
     d="M 0.14541272,0.22539283 H 23.734581 V 23.814561 H 0.14541272 Z"
     fill="none"
     id="path868"
     style="stroke-width:0.982882" />
</svg>
