<?xml version="1.0" encoding="UTF-8" standalone="no"?>
<!-- Created with Inkscape (http://www.inkscape.org/) -->

<svg
   xmlns:dc="http://purl.org/dc/elements/1.1/"
   xmlns:cc="http://creativecommons.org/ns#"
   xmlns:rdf="http://www.w3.org/1999/02/22-rdf-syntax-ns#"
   xmlns:svg="http://www.w3.org/2000/svg"
   xmlns="http://www.w3.org/2000/svg"
   xmlns:sodipodi="http://sodipodi.sourceforge.net/DTD/sodipodi-0.dtd"
   xmlns:inkscape="http://www.inkscape.org/namespaces/inkscape"
   width="50.270832mm"
   height="50.270832mm"
   viewBox="0 0 50.270832 50.270832"
   version="1.1"
   id="svg8"
   inkscape:version="0.92.3 (2405546, 2018-03-11)"
   sodipodi:docname="drawing.svg">
  <defs
     id="defs2" />
  <sodipodi:namedview
     id="base"
     pagecolor="#ffffff"
     bordercolor="#666666"
     borderopacity="1.0"
     inkscape:pageopacity="0.0"
     inkscape:pageshadow="2"
     inkscape:zoom="1.979899"
     inkscape:cx="-40.488088"
     inkscape:cy="130.93042"
     inkscape:document-units="mm"
     inkscape:current-layer="layer1"
     showgrid="false"
     inkscape:measure-start="0,0"
     inkscape:measure-end="0,0"
     inkscape:snap-text-baseline="true"
     inkscape:window-width="1863"
     inkscape:window-height="1025"
     inkscape:window-x="57"
     inkscape:window-y="27"
     inkscape:window-maximized="1"
     fit-margin-top="0"
     fit-margin-left="0"
     fit-margin-right="0"
     fit-margin-bottom="0" />
  <metadata
     id="metadata5">
    <rdf:RDF>
      <cc:Work
         rdf:about="">
        <dc:format>image/svg+xml</dc:format>
        <dc:type
           rdf:resource="http://purl.org/dc/dcmitype/StillImage" />
        <dc:title />
      </cc:Work>
    </rdf:RDF>
  </metadata>
  <g
     inkscape:label="Layer 1"
     inkscape:groupmode="layer"
     id="layer1"
     transform="translate(-51.147327,-81.515579)">
    <rect
       style="fill:#2ab243;stroke-width:0.26458332;fill-opacity:1"
       id="rect283"
       width="50.270832"
       height="50.270832"
       x="51.147327"
       y="81.515579" />
    <rect
       style="fill:#000000;stroke-width:0.12540215"
       id="rect283-1"
       width="27.552921"
       height="20.603914"
       x="59.671928"
       y="101.946" />
    <g
       aria-label="&gt;_"
       style="font-style:normal;font-weight:normal;font-size:8.48274136px;line-height:1.25;font-family:sans-serif;letter-spacing:0px;word-spacing:0px;fill:#000000;fill-opacity:1;stroke:none;stroke-width:0.21206853"
       id="text320">
      <path
         d="m 62.57046,116.77004 v -1.31201 l 3.280018,-1.45904 q 0.158346,-0.0679 0.305381,-0.1018 0.158346,-0.0452 0.282761,-0.0679 0.135725,-0.0113 0.271449,-0.0226 v -0.0905 q -0.135724,-0.0113 -0.271449,-0.0452 -0.124415,-0.0226 -0.282761,-0.0566 -0.147035,-0.0452 -0.305381,-0.1131 l -3.280018,-1.45904 v -1.32332 l 5.067063,2.31863 v 1.4138 z"
         style="font-style:normal;font-variant:normal;font-weight:bold;font-stretch:normal;font-size:11.31040859px;font-family:'JetBrains Mono';-inkscape-font-specification:'JetBrains Mono, Bold';font-variant-ligatures:normal;font-variant-caps:normal;font-variant-numeric:normal;font-feature-settings:normal;text-align:start;writing-mode:lr-tb;text-anchor:start;fill:#ffffff;stroke-width:0.21206853"
         id="path1011" />
      <path
         d="m 69.17132,117.75404 h 5.428996 v 1.27808 H 69.17132 Z"
         style="font-style:normal;font-variant:normal;font-weight:bold;font-stretch:normal;font-size:11.31040859px;font-family:'JetBrains Mono';-inkscape-font-specification:'JetBrains Mono, Bold';font-variant-ligatures:normal;font-variant-caps:normal;font-variant-numeric:normal;font-feature-settings:normal;text-align:start;writing-mode:lr-tb;text-anchor:start;fill:#ffffff;stroke-width:0.21206853"
         id="path1013" />
    </g>
    <rect
       style="fill:#666666;stroke-width:0.06240399"
       id="rect283-1-9"
       width="27.552919"
       height="5.1022816"
       x="59.671928"
       y="101.946" />
    <path
       style="fill:#ffffff;fill-opacity:1;stroke-width:0.92330438"
       inkscape:connector-curvature="0"
       d="M 91.976939,93.873326 H 76.77026 c -1.045471,0 -1.900848,0.807268 -1.900848,1.793923 v 16.145361 l 3.801679,-3.58785 h 13.305848 c 1.045473,0 1.900841,-0.80727 1.900841,-1.79395 V 95.667249 c 0,-0.986655 -0.855368,-1.793923 -1.900841,-1.793923 z M 81.522345,101.946 h -1.900831 v -1.79392 h 1.900831 z m 3.801678,0 h -1.900847 v -1.79392 h 1.900847 z m 3.801661,0 h -1.90083 v -1.79392 h 1.90083 z"
       id="path403" />
    <rect
       style="fill:#000000;fill-opacity:1;stroke-width:0.26458332"
       id="rect283-3"
       width="50.270832"
       height="50.270832"
       x="-14.345784"
       y="93.688423" />
    <rect
       style="fill:#000000;stroke-width:1.525;stroke:#ffffff;stroke-opacity:1;opacity:1;stroke-miterlimit:4;stroke-dasharray:none"
       id="rect283-1-6"
       width="27.552919"
       height="20.603914"
       x="-5.821187"
       y="114.11885" />
    <text
       xml:space="preserve"
       style="font-style:normal;font-weight:normal;font-size:8.48274231px;line-height:1.25;font-family:sans-serif;letter-spacing:0px;word-spacing:0px;fill:#000000;fill-opacity:1;stroke:none;stroke-width:0.21206853"
       x="-3.7822466"
       y="129.64413"
       id="text320-7"><tspan
         sodipodi:role="line"
         x="-3.7822466"
         y="129.64413"
         style="font-style:normal;font-variant:normal;font-weight:bold;font-stretch:normal;font-size:11.31040859px;font-family:'JetBrains Mono';-inkscape-font-specification:'JetBrains Mono, Bold';font-variant-ligatures:normal;font-variant-caps:normal;font-variant-numeric:normal;font-feature-settings:normal;text-align:start;writing-mode:lr-tb;text-anchor:start;fill:#ffffff;stroke-width:0.21206853"
         id="tspan328-5">&gt;_</tspan></text>
    <path
       style="fill:#ffffff;fill-opacity:1;stroke-width:0.92330438"
       inkscape:connector-curvature="0"
       d="m 26.483825,106.04617 h -15.20668 c -1.04547,0 -1.9008502,0.80727 -1.9008502,1.79392 v 16.14536 l 3.8016802,-3.58785 h 13.30585 c 1.04547,0 1.90084,-0.80727 1.90084,-1.79395 v -10.76356 c 0,-0.98665 -0.85537,-1.79392 -1.90084,-1.79392 z m -10.45459,8.07267 h -1.90084 v -1.79392 h 1.90084 z m 3.80167,0 h -1.90084 v -1.79392 h 1.90084 z m 3.80167,0 h -1.90083 v -1.79392 h 1.90083 z"
       id="path403-5" />
    <rect
       style="fill:#000000;fill-opacity:1;stroke-width:0.26458332"
       id="rect283-3-6"
       width="50.270832"
       height="50.270832"
       x="-11.673093"
       y="28.875563" />
    <path
       style="opacity:1;fill:#ffffff;fill-opacity:1;stroke:none;stroke-width:5.76377964;stroke-miterlimit:4;stroke-dasharray:none;stroke-opacity:1"
       d="M -205.21289 -121.73633 L -205.21289 -43.863281 L -101.07617 -43.863281 L -101.07617 -92.96875 L -106.41406 -92.96875 L -106.41406 -49.099609 L -200.10352 -49.099609 L -200.10352 -116.61523 L -150.51367 -116.61523 L -150.51367 -121.73633 L -205.21289 -121.73633 z "
       transform="matrix(0.26458333,0,0,0.26458333,51.147327,81.515579)"
       id="rect283-1-6-2" />
    <g
       aria-label="&gt;_"
       transform="scale(1.0013141,0.99868762)"
       style="font-style:normal;font-weight:normal;font-size:10.13521481px;line-height:1.25;font-family:sans-serif;letter-spacing:0px;word-spacing:0px;fill:#000000;fill-opacity:1;stroke:none;stroke-width:0.2533803"
       id="text320-7-9">
      <path
         d="m 0.74124969,63.1616 v -1.567592 l 3.91897891,-1.74327 q 0.1891921,-0.08108 0.3648705,-0.121623 0.1891921,-0.05405 0.337843,-0.08108 0.1621647,-0.01351 0.3243293,-0.02703 v -0.10811 Q 5.5251068,59.499382 5.3629421,59.458841 5.2142912,59.431813 5.0250991,59.391272 4.8494207,59.337217 4.6602286,59.256135 L 0.74124969,57.512865 V 55.93176 l 6.05414681,2.770312 v 1.689215 z"
         style="font-style:normal;font-variant:normal;font-weight:bold;font-stretch:normal;font-size:13.51372051px;font-family:'JetBrains Mono';-inkscape-font-specification:'JetBrains Mono, Bold';font-variant-ligatures:normal;font-variant-caps:normal;font-variant-numeric:normal;font-feature-settings:normal;text-align:start;writing-mode:lr-tb;text-anchor:start;fill:#ffffff;stroke-width:0.2533803"
         id="path933" />
      <path
         d="M 8.6279841,64.337294 H 15.11457 v 1.52705 H 8.6279841 Z"
         style="font-style:normal;font-variant:normal;font-weight:bold;font-stretch:normal;font-size:13.51372051px;font-family:'JetBrains Mono';-inkscape-font-specification:'JetBrains Mono, Bold';font-variant-ligatures:normal;font-variant-caps:normal;font-variant-numeric:normal;font-feature-settings:normal;text-align:start;writing-mode:lr-tb;text-anchor:start;fill:#ffffff;stroke-width:0.2533803"
         id="path935" />
    </g>
    <path
       style="fill:#ffffff;fill-opacity:1;stroke-width:0.92330438"
       inkscape:connector-curvature="0"
       d="M 29.912467,41.052427 H 14.705788 c -1.04547,0 -1.90085,0.80727 -1.90085,1.79392 v 16.145364 l 3.801681,-3.58785 h 13.305848 c 1.045472,0 1.900841,-0.80727 1.900841,-1.79395 V 42.846347 c 0,-0.98665 -0.855369,-1.79392 -1.900841,-1.79392 z M 19.457878,49.125101 H 17.55704 v -1.79392 h 1.900838 z m 3.801671,0 h -1.900841 v -1.79392 h 1.900841 z m 3.80167,0 h -1.90083 v -1.79392 h 1.90083 z"
       id="path403-5-2" />
  </g>
</svg>
